<mxfile host="app.diagrams.net" modified="2024-06-21T16:22:43.805Z" agent="Mozilla/5.0 (Windows NT 10.0; Win64; x64; rv:127.0) Gecko/20100101 Firefox/127.0" etag="bylAn7RRyQEux1Ql7cqu" version="24.6.1" type="device">
  <diagram name="Page-1" id="9OJnGBtglAZtIrliN8yp">
    <mxGraphModel dx="5088" dy="1356" grid="1" gridSize="10" guides="1" tooltips="1" connect="1" arrows="1" fold="1" page="1" pageScale="1" pageWidth="827" pageHeight="1169" math="0" shadow="0">
      <root>
        <mxCell id="0" />
        <mxCell id="1" parent="0" />
        <mxCell id="e_iyELN49HK_Dxw9cYSR-1" value="" style="shape=folder;fontStyle=1;spacingTop=10;tabWidth=120;tabHeight=30;tabPosition=left;html=1;whiteSpace=wrap;fillColor=#808080;strokeColor=#666666;gradientDirection=north;opacity=10;gradientColor=none;" parent="1" vertex="1">
          <mxGeometry x="-1850" y="1100" width="860" height="790" as="geometry" />
        </mxCell>
        <mxCell id="e_iyELN49HK_Dxw9cYSR-32" value="&lt;font style=&quot;font-size: 18px;&quot;&gt;HPC Project&lt;/font&gt;" style="text;align=center;fontStyle=1;verticalAlign=middle;spacingLeft=3;spacingRight=3;strokeColor=none;rotatable=0;points=[[0,0.5],[1,0.5]];portConstraint=eastwest;html=1;" parent="1" vertex="1">
          <mxGeometry x="-1850" y="1100" width="120" height="30" as="geometry" />
        </mxCell>
        <mxCell id="e_iyELN49HK_Dxw9cYSR-33" value="&lt;i style=&quot;font-size: 14px;&quot;&gt;parameters&lt;/i&gt;" style="html=1;whiteSpace=wrap;fillColor=#f0a30a;strokeColor=#BD7000;opacity=60;fontColor=#000000;fontSize=14;" parent="1" vertex="1">
          <mxGeometry x="-1606" y="1155" width="140" height="72.88" as="geometry" />
        </mxCell>
        <mxCell id="e_iyELN49HK_Dxw9cYSR-34" value="&lt;font style=&quot;font-size: 14px;&quot;&gt;&lt;i style=&quot;font-size: 14px;&quot;&gt;main.cpp&lt;/i&gt;&lt;/font&gt;" style="html=1;whiteSpace=wrap;fillColor=#f0a30a;strokeColor=#BD7000;opacity=60;fontColor=#000000;fontSize=14;" parent="1" vertex="1">
          <mxGeometry x="-1820" y="1155" width="140" height="72.88" as="geometry" />
        </mxCell>
        <mxCell id="e_iyELN49HK_Dxw9cYSR-36" value="" style="shape=folder;fontStyle=1;spacingTop=10;tabWidth=120;tabHeight=26;tabPosition=left;html=1;whiteSpace=wrap;fillColor=#f5f5f5;strokeColor=#666666;gradientColor=#b3b3b3;opacity=50;" parent="1" vertex="1">
          <mxGeometry x="-2439" y="892.88" width="350" height="340" as="geometry" />
        </mxCell>
        <mxCell id="e_iyELN49HK_Dxw9cYSR-37" value="&lt;font style=&quot;font-size: 15px;&quot;&gt;&lt;i&gt;Environment.js&lt;/i&gt;&lt;/font&gt;" style="html=1;whiteSpace=wrap;fillColor=#f0a30a;strokeColor=#BD7000;opacity=60;fontColor=#000000;" parent="1" vertex="1">
          <mxGeometry x="-2319" y="940.88" width="110" height="50" as="geometry" />
        </mxCell>
        <mxCell id="e_iyELN49HK_Dxw9cYSR-38" value="&lt;font style=&quot;font-size: 18px;&quot;&gt;Environment&lt;/font&gt;" style="text;align=center;fontStyle=1;verticalAlign=middle;spacingLeft=3;spacingRight=3;strokeColor=none;rotatable=0;points=[[0,0.5],[1,0.5]];portConstraint=eastwest;html=1;" parent="1" vertex="1">
          <mxGeometry x="-2450" y="895.88" width="142" height="20" as="geometry" />
        </mxCell>
        <mxCell id="e_iyELN49HK_Dxw9cYSR-50" value="" style="shape=folder;fontStyle=1;spacingTop=10;tabWidth=110;tabHeight=30;tabPosition=left;html=1;whiteSpace=wrap;fillColor=#f5f5f5;strokeColor=#666666;gradientColor=#b3b3b3;opacity=50;" parent="1" vertex="1">
          <mxGeometry x="-2450" y="1530" width="150" height="340" as="geometry" />
        </mxCell>
        <mxCell id="e_iyELN49HK_Dxw9cYSR-51" value="&lt;font style=&quot;font-size: 18px;&quot;&gt;Utils&lt;/font&gt;" style="text;align=center;fontStyle=1;verticalAlign=middle;spacingLeft=3;spacingRight=3;strokeColor=none;rotatable=0;points=[[0,0.5],[1,0.5]];portConstraint=eastwest;html=1;" parent="1" vertex="1">
          <mxGeometry x="-2450" y="1532" width="110" height="26" as="geometry" />
        </mxCell>
        <mxCell id="e_iyELN49HK_Dxw9cYSR-52" value="&lt;font style=&quot;font-size: 15px;&quot;&gt;&lt;i&gt;Position.js&lt;/i&gt;&lt;/font&gt;" style="html=1;whiteSpace=wrap;fillColor=#f0a30a;strokeColor=#BD7000;opacity=60;fontColor=#000000;" parent="1" vertex="1">
          <mxGeometry x="-2430" y="1690" width="110" height="50" as="geometry" />
        </mxCell>
        <mxCell id="e_iyELN49HK_Dxw9cYSR-53" value="&lt;font style=&quot;font-size: 15px;&quot;&gt;&lt;i&gt;BfsExecutor.js&lt;/i&gt;&lt;/font&gt;" style="html=1;whiteSpace=wrap;fillColor=#f0a30a;strokeColor=#BD7000;opacity=60;fontColor=#000000;" parent="1" vertex="1">
          <mxGeometry x="-2430" y="1590" width="110" height="50" as="geometry" />
        </mxCell>
        <mxCell id="e_iyELN49HK_Dxw9cYSR-54" value="&lt;font style=&quot;font-size: 15px;&quot;&gt;&lt;i&gt;PriorityQueue.js&lt;/i&gt;&lt;/font&gt;" style="html=1;whiteSpace=wrap;fillColor=#f0a30a;strokeColor=#BD7000;opacity=60;fontColor=#000000;" parent="1" vertex="1">
          <mxGeometry x="-2430" y="1780" width="110" height="50" as="geometry" />
        </mxCell>
        <mxCell id="e_iyELN49HK_Dxw9cYSR-41" value="&lt;font style=&quot;font-size: 15px;&quot;&gt;&lt;i&gt;Parcel.js&lt;/i&gt;&lt;/font&gt;" style="html=1;whiteSpace=wrap;fillColor=#f0a30a;strokeColor=#BD7000;opacity=60;fontColor=#000000;" parent="1" vertex="1">
          <mxGeometry x="-2403" y="1135.88" width="110" height="50" as="geometry" />
        </mxCell>
        <mxCell id="e_iyELN49HK_Dxw9cYSR-42" value="&lt;font style=&quot;font-size: 15px;&quot;&gt;&lt;i&gt;ParcelsManager.js&lt;/i&gt;&lt;/font&gt;" style="html=1;whiteSpace=wrap;fillColor=#f0a30a;strokeColor=#BD7000;opacity=60;fontColor=#000000;" parent="1" vertex="1">
          <mxGeometry x="-2415" y="1065.88" width="134" height="50" as="geometry" />
        </mxCell>
        <mxCell id="e_iyELN49HK_Dxw9cYSR-43" value="&lt;font style=&quot;font-size: 18px;&quot;&gt;Parcels&lt;/font&gt;" style="text;align=center;fontStyle=1;verticalAlign=middle;spacingLeft=3;spacingRight=3;strokeColor=none;rotatable=0;points=[[0,0.5],[1,0.5]];portConstraint=eastwest;html=1;" parent="1" vertex="1">
          <mxGeometry x="-2423" y="1015.88" width="110" height="26" as="geometry" />
        </mxCell>
        <mxCell id="e_iyELN49HK_Dxw9cYSR-46" value="&lt;font style=&quot;font-size: 15px;&quot;&gt;&lt;i&gt;Player.js&lt;/i&gt;&lt;/font&gt;" style="html=1;whiteSpace=wrap;fillColor=#f0a30a;strokeColor=#BD7000;opacity=60;fontColor=#000000;" parent="1" vertex="1">
          <mxGeometry x="-2239" y="1136.88" width="110" height="50" as="geometry" />
        </mxCell>
        <mxCell id="e_iyELN49HK_Dxw9cYSR-47" value="&lt;font style=&quot;font-size: 15px;&quot;&gt;&lt;i&gt;PlayerManager.js&lt;/i&gt;&lt;/font&gt;" style="html=1;whiteSpace=wrap;fillColor=#f0a30a;strokeColor=#BD7000;opacity=60;fontColor=#000000;" parent="1" vertex="1">
          <mxGeometry x="-2249" y="1066.88" width="130" height="50" as="geometry" />
        </mxCell>
        <mxCell id="e_iyELN49HK_Dxw9cYSR-48" value="&lt;font style=&quot;font-size: 18px;&quot;&gt;Players&lt;/font&gt;" style="text;align=center;fontStyle=1;verticalAlign=middle;spacingLeft=3;spacingRight=3;strokeColor=none;rotatable=0;points=[[0,0.5],[1,0.5]];portConstraint=eastwest;html=1;" parent="1" vertex="1">
          <mxGeometry x="-2259" y="1016.88" width="110" height="26" as="geometry" />
        </mxCell>
        <mxCell id="DYqYXh8UroBWhtCeghqz-8" value="" style="shape=folder;fontStyle=1;spacingTop=10;tabWidth=105;tabHeight=30;tabPosition=left;html=1;whiteSpace=wrap;fillColor=#f5f5f5;strokeColor=#666666;gradientColor=#b3b3b3;opacity=50;" parent="1" vertex="1">
          <mxGeometry x="-1812" y="1252" width="194.5" height="448" as="geometry" />
        </mxCell>
        <mxCell id="DYqYXh8UroBWhtCeghqz-9" value="&lt;font style=&quot;font-size: 16px;&quot;&gt;SRC&lt;/font&gt; (.h &amp;amp; .cpp)" style="text;align=center;fontStyle=1;verticalAlign=middle;spacingLeft=3;spacingRight=3;strokeColor=none;rotatable=0;points=[[0,0.5],[1,0.5]];portConstraint=eastwest;html=1;" parent="1" vertex="1">
          <mxGeometry x="-1812" y="1250" width="102" height="32" as="geometry" />
        </mxCell>
        <mxCell id="DYqYXh8UroBWhtCeghqz-10" value="&lt;font style=&quot;font-size: 14px;&quot;&gt;&lt;i style=&quot;font-size: 14px;&quot;&gt;hts_evaluation&lt;/i&gt;&lt;/font&gt;" style="html=1;whiteSpace=wrap;fillColor=#f0a30a;strokeColor=#BD7000;opacity=60;fontColor=#000000;fontSize=14;" parent="1" vertex="1">
          <mxGeometry x="-1790" y="1366" width="150" height="50" as="geometry" />
        </mxCell>
        <mxCell id="DYqYXh8UroBWhtCeghqz-11" value="&lt;span style=&quot;font-size: 14px;&quot;&gt;&lt;i style=&quot;font-size: 14px;&quot;&gt;functions&lt;/i&gt;&lt;/span&gt;" style="html=1;whiteSpace=wrap;fillColor=#f0a30a;strokeColor=#BD7000;opacity=60;fontColor=#000000;fontSize=14;" parent="1" vertex="1">
          <mxGeometry x="-1790" y="1300" width="150" height="50" as="geometry" />
        </mxCell>
        <mxCell id="DYqYXh8UroBWhtCeghqz-12" value="&lt;font style=&quot;font-size: 14px;&quot;&gt;&lt;i style=&quot;font-size: 14px;&quot;&gt;hts&lt;/i&gt;&lt;/font&gt;" style="html=1;whiteSpace=wrap;fillColor=#f0a30a;strokeColor=#BD7000;opacity=60;fontColor=#000000;fontSize=14;" parent="1" vertex="1">
          <mxGeometry x="-1790" y="1432" width="150" height="50" as="geometry" />
        </mxCell>
        <mxCell id="DYqYXh8UroBWhtCeghqz-13" value="&lt;font style=&quot;font-size: 14px;&quot;&gt;&lt;i style=&quot;font-size: 14px;&quot;&gt;image_preprocessing&lt;/i&gt;&lt;/font&gt;" style="html=1;whiteSpace=wrap;fillColor=#f0a30a;strokeColor=#BD7000;opacity=60;fontColor=#000000;fontSize=14;" parent="1" vertex="1">
          <mxGeometry x="-1789.5" y="1498" width="149.5" height="50" as="geometry" />
        </mxCell>
        <mxCell id="-jUf1u1hcxmtGC-KU7Lo-1" value="&lt;i style=&quot;font-size: 14px;&quot;&gt;HoughTransform.sh&lt;/i&gt;" style="html=1;whiteSpace=wrap;fillColor=#f0a30a;strokeColor=#BD7000;opacity=60;fontColor=#000000;fontSize=14;" parent="1" vertex="1">
          <mxGeometry x="-1392" y="1155" width="140" height="72.88" as="geometry" />
        </mxCell>
        <mxCell id="-jUf1u1hcxmtGC-KU7Lo-2" value="&lt;i style=&quot;font-size: 14px;&quot;&gt;HoughTransform&lt;/i&gt;" style="html=1;whiteSpace=wrap;fillColor=#f0a30a;strokeColor=#BD7000;opacity=60;fontColor=#000000;fontSize=14;" parent="1" vertex="1">
          <mxGeometry x="-1178" y="1155" width="140" height="72.88" as="geometry" />
        </mxCell>
        <mxCell id="-jUf1u1hcxmtGC-KU7Lo-3" value="&lt;font style=&quot;font-size: 14px;&quot;&gt;&lt;i style=&quot;font-size: 14px;&quot;&gt;structures&lt;/i&gt;&lt;/font&gt;" style="html=1;whiteSpace=wrap;fillColor=#f0a30a;strokeColor=#BD7000;opacity=60;fontColor=#000000;fontSize=14;" parent="1" vertex="1">
          <mxGeometry x="-1790" y="1564" width="150" height="50" as="geometry" />
        </mxCell>
        <mxCell id="-jUf1u1hcxmtGC-KU7Lo-4" value="&lt;font style=&quot;font-size: 14px;&quot;&gt;&lt;i style=&quot;font-size: 14px;&quot;&gt;utils&lt;/i&gt;&lt;/font&gt;" style="html=1;whiteSpace=wrap;fillColor=#f0a30a;strokeColor=#BD7000;opacity=60;fontColor=#000000;fontSize=14;" parent="1" vertex="1">
          <mxGeometry x="-1790" y="1630" width="150" height="50" as="geometry" />
        </mxCell>
        <mxCell id="-jUf1u1hcxmtGC-KU7Lo-20" value="" style="group" parent="1" vertex="1" connectable="0">
          <mxGeometry x="-1587" y="1252" width="358" height="330" as="geometry" />
        </mxCell>
        <mxCell id="e_iyELN49HK_Dxw9cYSR-5" value="" style="shape=folder;fontStyle=1;spacingTop=10;tabWidth=110;tabHeight=30;tabPosition=left;html=1;whiteSpace=wrap;fillColor=#f5f5f5;strokeColor=#666666;gradientColor=#b3b3b3;opacity=50;" parent="-jUf1u1hcxmtGC-KU7Lo-20" vertex="1">
          <mxGeometry width="358" height="330" as="geometry" />
        </mxCell>
        <mxCell id="e_iyELN49HK_Dxw9cYSR-21" value="&lt;font style=&quot;font-size: 18px;&quot;&gt;Dataset&lt;/font&gt;" style="text;align=center;fontStyle=1;verticalAlign=middle;spacingLeft=3;spacingRight=3;strokeColor=none;rotatable=0;points=[[0,0.5],[1,0.5]];portConstraint=eastwest;html=1;" parent="-jUf1u1hcxmtGC-KU7Lo-20" vertex="1">
          <mxGeometry width="110" height="30" as="geometry" />
        </mxCell>
        <mxCell id="e_iyELN49HK_Dxw9cYSR-22" value="&lt;div style=&quot;font-size: 14px;&quot;&gt;&lt;font style=&quot;font-size: 14px;&quot;&gt;&lt;i style=&quot;font-size: 14px;&quot;&gt;generate_&lt;/i&gt;&lt;/font&gt;&lt;/div&gt;&lt;div style=&quot;font-size: 14px;&quot;&gt;&lt;font style=&quot;font-size: 14px;&quot;&gt;&lt;i style=&quot;font-size: 14px;&quot;&gt;dataset.py&lt;br style=&quot;font-size: 14px;&quot;&gt;&lt;/i&gt;&lt;/font&gt;&lt;/div&gt;" style="html=1;whiteSpace=wrap;fillColor=#f0a30a;strokeColor=#BD7000;opacity=60;fontColor=#000000;fontSize=14;" parent="-jUf1u1hcxmtGC-KU7Lo-20" vertex="1">
          <mxGeometry x="43" y="50" width="110" height="50" as="geometry" />
        </mxCell>
        <mxCell id="e_iyELN49HK_Dxw9cYSR-23" value="&lt;div style=&quot;font-size: 14px;&quot;&gt;&lt;font style=&quot;font-size: 14px;&quot;&gt;&lt;i style=&quot;font-size: 14px;&quot;&gt;generate_&lt;/i&gt;&lt;/font&gt;&lt;/div&gt;&lt;div style=&quot;font-size: 14px;&quot;&gt;&lt;font style=&quot;font-size: 14px;&quot;&gt;&lt;i style=&quot;font-size: 14px;&quot;&gt;dataset.sh&lt;br style=&quot;font-size: 14px;&quot;&gt;&lt;/i&gt;&lt;/font&gt;&lt;/div&gt;" style="html=1;whiteSpace=wrap;fillColor=#f0a30a;strokeColor=#BD7000;opacity=60;fontColor=#000000;fontSize=14;" parent="-jUf1u1hcxmtGC-KU7Lo-20" vertex="1">
          <mxGeometry x="213" y="50" width="110" height="50" as="geometry" />
        </mxCell>
        <mxCell id="e_iyELN49HK_Dxw9cYSR-7" value="" style="shape=folder;fontStyle=1;spacingTop=10;tabWidth=110;tabHeight=30;tabPosition=left;html=1;whiteSpace=wrap;strokeColor=#666666;fillColor=#f5f5f5;gradientColor=#b3b3b3;opacity=60;" parent="-jUf1u1hcxmtGC-KU7Lo-20" vertex="1">
          <mxGeometry x="18.5" y="158" width="159" height="118" as="geometry" />
        </mxCell>
        <mxCell id="e_iyELN49HK_Dxw9cYSR-9" value="&lt;font style=&quot;font-size: 14px;&quot;&gt;&lt;i style=&quot;font-size: 14px;&quot;&gt;input images&lt;br&gt;&lt;/i&gt;&lt;/font&gt;" style="html=1;whiteSpace=wrap;fillColor=#f0a30a;strokeColor=#BD7000;opacity=60;fontColor=#000000;fontSize=14;" parent="-jUf1u1hcxmtGC-KU7Lo-20" vertex="1">
          <mxGeometry x="43.5" y="210" width="110" height="50" as="geometry" />
        </mxCell>
        <mxCell id="e_iyELN49HK_Dxw9cYSR-10" value="&lt;font style=&quot;font-size: 18px;&quot;&gt;Images&lt;/font&gt;" style="text;align=center;fontStyle=1;verticalAlign=middle;spacingLeft=3;spacingRight=3;strokeColor=none;rotatable=0;points=[[0,0.5],[1,0.5]];portConstraint=eastwest;html=1;" parent="-jUf1u1hcxmtGC-KU7Lo-20" vertex="1">
          <mxGeometry x="18.5" y="160" width="110" height="26" as="geometry" />
        </mxCell>
        <mxCell id="e_iyELN49HK_Dxw9cYSR-12" value="" style="shape=folder;fontStyle=1;spacingTop=10;tabWidth=118;tabHeight=30;tabPosition=left;html=1;whiteSpace=wrap;strokeColor=#666666;fillColor=#f5f5f5;gradientColor=#b3b3b3;opacity=60;" parent="-jUf1u1hcxmtGC-KU7Lo-20" vertex="1">
          <mxGeometry x="193" y="122" width="150" height="190" as="geometry" />
        </mxCell>
        <mxCell id="e_iyELN49HK_Dxw9cYSR-13" value="&lt;i&gt;images (.pnm)&lt;br&gt;&lt;/i&gt;" style="html=1;whiteSpace=wrap;fillColor=#f0a30a;strokeColor=#BD7000;opacity=60;fontColor=#000000;fontSize=14;" parent="-jUf1u1hcxmtGC-KU7Lo-20" vertex="1">
          <mxGeometry x="213" y="244" width="110" height="50" as="geometry" />
        </mxCell>
        <mxCell id="e_iyELN49HK_Dxw9cYSR-14" value="&lt;i&gt;ground_truth.csv&lt;/i&gt;" style="html=1;whiteSpace=wrap;fillColor=#f0a30a;strokeColor=#BD7000;opacity=60;fontColor=#000000;fontSize=14;" parent="-jUf1u1hcxmtGC-KU7Lo-20" vertex="1">
          <mxGeometry x="209.5" y="174" width="117" height="50" as="geometry" />
        </mxCell>
        <mxCell id="e_iyELN49HK_Dxw9cYSR-15" value="&lt;font style=&quot;font-size: 18px;&quot;&gt;Synthetic_X&lt;/font&gt;" style="text;align=center;fontStyle=1;verticalAlign=middle;spacingLeft=3;spacingRight=3;strokeColor=none;rotatable=0;points=[[0,0.5],[1,0.5]];portConstraint=eastwest;html=1;" parent="-jUf1u1hcxmtGC-KU7Lo-20" vertex="1">
          <mxGeometry x="193" y="124" width="118" height="26" as="geometry" />
        </mxCell>
        <mxCell id="-jUf1u1hcxmtGC-KU7Lo-21" value="" style="group" parent="1" vertex="1" connectable="0">
          <mxGeometry x="-1198" y="1250" width="180" height="330" as="geometry" />
        </mxCell>
        <mxCell id="-jUf1u1hcxmtGC-KU7Lo-11" value="" style="shape=folder;fontStyle=1;spacingTop=10;tabWidth=110;tabHeight=30;tabPosition=left;html=1;whiteSpace=wrap;strokeColor=#666666;fillColor=#f5f5f5;gradientColor=#b3b3b3;opacity=60;" parent="-jUf1u1hcxmtGC-KU7Lo-21" vertex="1">
          <mxGeometry width="180" height="330" as="geometry" />
        </mxCell>
        <mxCell id="-jUf1u1hcxmtGC-KU7Lo-12" value="&lt;font style=&quot;font-size: 14px;&quot;&gt;&lt;i style=&quot;font-size: 14px;&quot;&gt;ht.err&lt;/i&gt;&lt;/font&gt;" style="html=1;whiteSpace=wrap;fillColor=#f0a30a;strokeColor=#BD7000;opacity=60;fontColor=#000000;fontSize=14;" parent="-jUf1u1hcxmtGC-KU7Lo-21" vertex="1">
          <mxGeometry x="20" y="122" width="140" height="50" as="geometry" />
        </mxCell>
        <mxCell id="-jUf1u1hcxmtGC-KU7Lo-13" value="&lt;font style=&quot;font-size: 14px;&quot;&gt;&lt;i style=&quot;font-size: 14px;&quot;&gt;ht.out&lt;/i&gt;&lt;/font&gt;" style="html=1;whiteSpace=wrap;fillColor=#f0a30a;strokeColor=#BD7000;opacity=60;fontColor=#000000;fontSize=14;" parent="-jUf1u1hcxmtGC-KU7Lo-21" vertex="1">
          <mxGeometry x="20" y="52" width="140" height="50" as="geometry" />
        </mxCell>
        <mxCell id="-jUf1u1hcxmtGC-KU7Lo-14" value="&lt;font style=&quot;font-size: 18px;&quot;&gt;Output&lt;/font&gt;" style="text;align=center;fontStyle=1;verticalAlign=middle;spacingLeft=3;spacingRight=3;strokeColor=none;rotatable=0;points=[[0,0.5],[1,0.5]];portConstraint=eastwest;html=1;" parent="-jUf1u1hcxmtGC-KU7Lo-21" vertex="1">
          <mxGeometry y="2" width="110" height="26" as="geometry" />
        </mxCell>
        <mxCell id="-jUf1u1hcxmtGC-KU7Lo-15" value="" style="shape=folder;fontStyle=1;spacingTop=10;tabWidth=110;tabHeight=30;tabPosition=left;html=1;whiteSpace=wrap;fillColor=#f5f5f5;strokeColor=#666666;gradientColor=#b3b3b3;opacity=50;" parent="-jUf1u1hcxmtGC-KU7Lo-21" vertex="1">
          <mxGeometry x="15" y="190" width="150" height="130" as="geometry" />
        </mxCell>
        <mxCell id="-jUf1u1hcxmtGC-KU7Lo-16" value="Output&lt;i&gt; images generated by the program&lt;br&gt;&lt;/i&gt;" style="html=1;whiteSpace=wrap;fillColor=#f0a30a;strokeColor=#BD7000;opacity=60;fontColor=#000000;fontSize=14;" parent="-jUf1u1hcxmtGC-KU7Lo-21" vertex="1">
          <mxGeometry x="27.5" y="235" width="125" height="70.5" as="geometry" />
        </mxCell>
        <mxCell id="-jUf1u1hcxmtGC-KU7Lo-17" value="&lt;font style=&quot;font-size: 18px;&quot;&gt;Test&lt;/font&gt;" style="text;align=center;fontStyle=1;verticalAlign=middle;spacingLeft=3;spacingRight=3;strokeColor=none;rotatable=0;points=[[0,0.5],[1,0.5]];portConstraint=eastwest;html=1;" parent="-jUf1u1hcxmtGC-KU7Lo-21" vertex="1">
          <mxGeometry x="15" y="192.16666666666697" width="110" height="28.166666666666668" as="geometry" />
        </mxCell>
        <mxCell id="-jUf1u1hcxmtGC-KU7Lo-22" value="" style="group" parent="1" vertex="1" connectable="0">
          <mxGeometry x="-1378" y="1610" width="180" height="250" as="geometry" />
        </mxCell>
        <mxCell id="-jUf1u1hcxmtGC-KU7Lo-6" value="" style="shape=folder;fontStyle=1;spacingTop=10;tabWidth=122;tabHeight=30;tabPosition=left;html=1;whiteSpace=wrap;strokeColor=#666666;fillColor=#f5f5f5;gradientColor=#b3b3b3;opacity=60;" parent="-jUf1u1hcxmtGC-KU7Lo-22" vertex="1">
          <mxGeometry width="180" height="250" as="geometry" />
        </mxCell>
        <mxCell id="-jUf1u1hcxmtGC-KU7Lo-7" value="&lt;div style=&quot;font-size: 14px;&quot;&gt;&lt;font style=&quot;font-size: 14px;&quot;&gt;&lt;i style=&quot;font-size: 14px;&quot;&gt;single_image_&lt;/i&gt;&lt;/font&gt;&lt;/div&gt;&lt;div style=&quot;font-size: 14px;&quot;&gt;&lt;font style=&quot;font-size: 14px;&quot;&gt;&lt;i style=&quot;font-size: 14px;&quot;&gt;performance.csv&lt;/i&gt;&lt;/font&gt;&lt;/div&gt;" style="html=1;whiteSpace=wrap;fillColor=#f0a30a;strokeColor=#BD7000;opacity=60;fontColor=#000000;fontSize=14;" parent="-jUf1u1hcxmtGC-KU7Lo-22" vertex="1">
          <mxGeometry x="20" y="121" width="140" height="50" as="geometry" />
        </mxCell>
        <mxCell id="-jUf1u1hcxmtGC-KU7Lo-8" value="&lt;font style=&quot;font-size: 14px;&quot;&gt;&lt;i style=&quot;font-size: 14px;&quot;&gt;analysis.ipynb&lt;/i&gt;&lt;/font&gt;" style="html=1;whiteSpace=wrap;fillColor=#f0a30a;strokeColor=#BD7000;opacity=60;fontColor=#000000;fontSize=14;" parent="-jUf1u1hcxmtGC-KU7Lo-22" vertex="1">
          <mxGeometry x="20" y="52" width="140" height="50" as="geometry" />
        </mxCell>
        <mxCell id="-jUf1u1hcxmtGC-KU7Lo-9" value="&lt;font style=&quot;font-size: 18px;&quot;&gt;Performance&lt;/font&gt;" style="text;align=center;fontStyle=1;verticalAlign=middle;spacingLeft=3;spacingRight=3;strokeColor=none;rotatable=0;points=[[0,0.5],[1,0.5]];portConstraint=eastwest;html=1;" parent="-jUf1u1hcxmtGC-KU7Lo-22" vertex="1">
          <mxGeometry y="2" width="122" height="26" as="geometry" />
        </mxCell>
        <mxCell id="-jUf1u1hcxmtGC-KU7Lo-10" value="&lt;div style=&quot;font-size: 14px;&quot;&gt;&lt;font style=&quot;font-size: 14px;&quot;&gt;&lt;i style=&quot;font-size: 14px;&quot;&gt;dataset_eval_&lt;/i&gt;&lt;/font&gt;&lt;/div&gt;&lt;div style=&quot;font-size: 14px;&quot;&gt;&lt;font style=&quot;font-size: 14px;&quot;&gt;&lt;i style=&quot;font-size: 14px;&quot;&gt;performance.csv&lt;br style=&quot;font-size: 14px;&quot;&gt;&lt;/i&gt;&lt;/font&gt;&lt;/div&gt;" style="html=1;whiteSpace=wrap;fillColor=#f0a30a;strokeColor=#BD7000;opacity=60;fontColor=#000000;fontSize=14;" parent="-jUf1u1hcxmtGC-KU7Lo-22" vertex="1">
          <mxGeometry x="20" y="190" width="140" height="50" as="geometry" />
        </mxCell>
        <mxCell id="-jUf1u1hcxmtGC-KU7Lo-23" value="" style="group" parent="1" vertex="1" connectable="0">
          <mxGeometry x="-1183" y="1610" width="150" height="130" as="geometry" />
        </mxCell>
        <mxCell id="e_iyELN49HK_Dxw9cYSR-29" value="" style="shape=folder;fontStyle=1;spacingTop=10;tabWidth=110;tabHeight=30;tabPosition=left;html=1;whiteSpace=wrap;fillColor=#f5f5f5;strokeColor=#666666;gradientColor=#b3b3b3;opacity=50;" parent="-jUf1u1hcxmtGC-KU7Lo-23" vertex="1">
          <mxGeometry width="150" height="130" as="geometry" />
        </mxCell>
        <mxCell id="e_iyELN49HK_Dxw9cYSR-30" value="&lt;font style=&quot;font-size: 14px;&quot;&gt;&lt;i&gt;Slides &amp;amp; papers&lt;br&gt;&lt;/i&gt;&lt;/font&gt;" style="html=1;whiteSpace=wrap;fillColor=#f0a30a;strokeColor=#BD7000;opacity=60;fontColor=#000000;" parent="-jUf1u1hcxmtGC-KU7Lo-23" vertex="1">
          <mxGeometry x="20" y="56.33333333333303" width="110" height="54.166666666666664" as="geometry" />
        </mxCell>
        <mxCell id="e_iyELN49HK_Dxw9cYSR-31" value="&lt;font style=&quot;font-size: 18px;&quot;&gt;Docs&lt;/font&gt;" style="text;align=center;fontStyle=1;verticalAlign=middle;spacingLeft=3;spacingRight=3;strokeColor=none;rotatable=0;points=[[0,0.5],[1,0.5]];portConstraint=eastwest;html=1;" parent="-jUf1u1hcxmtGC-KU7Lo-23" vertex="1">
          <mxGeometry y="2.16666666666697" width="110" height="28.166666666666668" as="geometry" />
        </mxCell>
        <mxCell id="-jUf1u1hcxmtGC-KU7Lo-24" value="" style="group" parent="1" vertex="1" connectable="0">
          <mxGeometry x="-1606" y="1610" width="210" height="190" as="geometry" />
        </mxCell>
        <mxCell id="e_iyELN49HK_Dxw9cYSR-17" value="" style="shape=folder;fontStyle=1;spacingTop=10;tabWidth=110;tabHeight=30;tabPosition=left;html=1;whiteSpace=wrap;strokeColor=#666666;fillColor=#f5f5f5;gradientColor=#b3b3b3;opacity=60;" parent="-jUf1u1hcxmtGC-KU7Lo-24" vertex="1">
          <mxGeometry x="8" width="202" height="190" as="geometry" />
        </mxCell>
        <mxCell id="e_iyELN49HK_Dxw9cYSR-18" value="&lt;font style=&quot;font-size: 14px;&quot;&gt;&lt;i style=&quot;font-size: 14px;&quot;&gt;image_converter.sh&lt;/i&gt;&lt;/font&gt;" style="html=1;whiteSpace=wrap;fillColor=#f0a30a;strokeColor=#BD7000;opacity=60;fontColor=#000000;fontSize=14;" parent="-jUf1u1hcxmtGC-KU7Lo-24" vertex="1">
          <mxGeometry x="30" y="121" width="150" height="50" as="geometry" />
        </mxCell>
        <mxCell id="e_iyELN49HK_Dxw9cYSR-19" value="&lt;font style=&quot;font-size: 14px;&quot;&gt;&lt;i style=&quot;font-size: 14px;&quot;&gt;image_converter.py&lt;/i&gt;&lt;/font&gt;" style="html=1;whiteSpace=wrap;fillColor=#f0a30a;strokeColor=#BD7000;opacity=60;fontColor=#000000;fontSize=14;" parent="-jUf1u1hcxmtGC-KU7Lo-24" vertex="1">
          <mxGeometry x="30" y="50" width="150" height="50" as="geometry" />
        </mxCell>
        <mxCell id="e_iyELN49HK_Dxw9cYSR-20" value="&lt;font style=&quot;font-size: 18px;&quot;&gt;Python&lt;/font&gt;" style="text;align=center;fontStyle=1;verticalAlign=middle;spacingLeft=3;spacingRight=3;strokeColor=none;rotatable=0;points=[[0,0.5],[1,0.5]];portConstraint=eastwest;html=1;" parent="-jUf1u1hcxmtGC-KU7Lo-24" vertex="1">
          <mxGeometry width="110" height="30" as="geometry" />
        </mxCell>
        <mxCell id="V_dCHnUJ4swRhuql47Kb-3" value="" style="html=1;whiteSpace=wrap;strokeColor=none;fillColor=#a8a6ab;gradientColor=none;opacity=20;" vertex="1" parent="1">
          <mxGeometry x="-2040" y="2070" width="830" height="280" as="geometry" />
        </mxCell>
        <mxCell id="V_dCHnUJ4swRhuql47Kb-4" style="edgeStyle=orthogonalEdgeStyle;rounded=0;orthogonalLoop=1;jettySize=auto;html=1;exitX=1;exitY=0.5;exitDx=0;exitDy=0;entryX=0;entryY=0.5;entryDx=0;entryDy=0;" edge="1" parent="1" source="V_dCHnUJ4swRhuql47Kb-5" target="V_dCHnUJ4swRhuql47Kb-12">
          <mxGeometry relative="1" as="geometry" />
        </mxCell>
        <mxCell id="V_dCHnUJ4swRhuql47Kb-5" value="" style="html=1;whiteSpace=wrap;fillColor=#008a00;fontColor=#ffffff;strokeColor=#005700;opacity=20;" vertex="1" parent="1">
          <mxGeometry x="-1671" y="2110.01" width="170" height="228.75" as="geometry" />
        </mxCell>
        <mxCell id="V_dCHnUJ4swRhuql47Kb-6" style="edgeStyle=orthogonalEdgeStyle;rounded=0;orthogonalLoop=1;jettySize=auto;html=1;entryX=0;entryY=0.5;entryDx=0;entryDy=0;" edge="1" parent="1" source="V_dCHnUJ4swRhuql47Kb-7" target="V_dCHnUJ4swRhuql47Kb-16">
          <mxGeometry relative="1" as="geometry" />
        </mxCell>
        <mxCell id="V_dCHnUJ4swRhuql47Kb-7" value="Image" style="html=1;whiteSpace=wrap;fillColor=#e3c800;strokeColor=#B09500;strokeWidth=1;fontColor=#000000;" vertex="1" parent="1">
          <mxGeometry x="-2030" y="2198.75" width="60" height="50" as="geometry" />
        </mxCell>
        <mxCell id="V_dCHnUJ4swRhuql47Kb-8" value="HT " style="html=1;whiteSpace=wrap;fillColor=#008a00;fontColor=#ffffff;strokeColor=#005700;" vertex="1" parent="1">
          <mxGeometry x="-1640.75" y="2145.5" width="110" height="50" as="geometry" />
        </mxCell>
        <mxCell id="V_dCHnUJ4swRhuql47Kb-9" value="PHT" style="html=1;whiteSpace=wrap;fillColor=#008a00;fontColor=#ffffff;strokeColor=#005700;" vertex="1" parent="1">
          <mxGeometry x="-1641.25" y="2208" width="110" height="50" as="geometry" />
        </mxCell>
        <mxCell id="V_dCHnUJ4swRhuql47Kb-10" value="PPHT" style="html=1;whiteSpace=wrap;fillColor=#008a00;fontColor=#ffffff;strokeColor=#005700;" vertex="1" parent="1">
          <mxGeometry x="-1641.25" y="2270" width="110" height="50" as="geometry" />
        </mxCell>
        <mxCell id="V_dCHnUJ4swRhuql47Kb-11" style="edgeStyle=orthogonalEdgeStyle;rounded=0;orthogonalLoop=1;jettySize=auto;html=1;entryX=0;entryY=0.5;entryDx=0;entryDy=0;" edge="1" parent="1" source="V_dCHnUJ4swRhuql47Kb-12" target="V_dCHnUJ4swRhuql47Kb-13">
          <mxGeometry relative="1" as="geometry" />
        </mxCell>
        <mxCell id="V_dCHnUJ4swRhuql47Kb-12" value="&lt;div&gt;Clustering&lt;/div&gt;&lt;div&gt;(opt.)&lt;br&gt;&lt;/div&gt;" style="html=1;whiteSpace=wrap;fillColor=#fa6800;fontColor=#000000;strokeColor=none;strokeWidth=1;" vertex="1" parent="1">
          <mxGeometry x="-1474" y="2199.38" width="110" height="50" as="geometry" />
        </mxCell>
        <mxCell id="V_dCHnUJ4swRhuql47Kb-13" value="&lt;div&gt;Saving metrics and intermediate and final images&lt;br&gt;&lt;/div&gt;" style="html=1;whiteSpace=wrap;strokeColor=none;fillColor=#a8a6ab;gradientColor=none;opacity=60;" vertex="1" parent="1">
          <mxGeometry x="-1340" y="2181.25" width="110" height="85" as="geometry" />
        </mxCell>
        <mxCell id="V_dCHnUJ4swRhuql47Kb-14" value="Hough Transformation" style="text;html=1;align=center;verticalAlign=middle;whiteSpace=wrap;rounded=0;fontSize=14;fontStyle=1" vertex="1" parent="1">
          <mxGeometry x="-1671" y="2108.75" width="171" height="30" as="geometry" />
        </mxCell>
        <mxCell id="V_dCHnUJ4swRhuql47Kb-15" value="" style="group" vertex="1" connectable="0" parent="1">
          <mxGeometry x="-1957" y="2108.75" width="260" height="230" as="geometry" />
        </mxCell>
        <mxCell id="V_dCHnUJ4swRhuql47Kb-16" value="" style="html=1;whiteSpace=wrap;fillColor=#a20025;fontColor=#ffffff;strokeColor=#6F0000;opacity=30;textOpacity=10;" vertex="1" parent="V_dCHnUJ4swRhuql47Kb-15">
          <mxGeometry x="10" width="250" height="230" as="geometry" />
        </mxCell>
        <mxCell id="V_dCHnUJ4swRhuql47Kb-17" value="&lt;div&gt;Greyscale&lt;/div&gt;&lt;div&gt;Conversion&lt;br&gt;&lt;/div&gt;" style="html=1;whiteSpace=wrap;fillColor=#a20025;fontColor=#ffffff;strokeColor=#6F0000;opacity=50;" vertex="1" parent="V_dCHnUJ4swRhuql47Kb-15">
          <mxGeometry x="140" y="36" width="110" height="50" as="geometry" />
        </mxCell>
        <mxCell id="V_dCHnUJ4swRhuql47Kb-18" value="Gaussian Blurring" style="html=1;whiteSpace=wrap;fillColor=#a20025;fontColor=#ffffff;strokeColor=#6F0000;gradientColor=none;" vertex="1" parent="V_dCHnUJ4swRhuql47Kb-15">
          <mxGeometry x="20" y="36" width="110" height="50" as="geometry" />
        </mxCell>
        <mxCell id="V_dCHnUJ4swRhuql47Kb-19" value="&lt;div&gt;Histogram&lt;/div&gt;&lt;div&gt;Equalization&lt;br&gt;&lt;/div&gt;" style="html=1;whiteSpace=wrap;fillColor=#a20025;fontColor=#ffffff;strokeColor=#6F0000;opacity=50;" vertex="1" parent="V_dCHnUJ4swRhuql47Kb-15">
          <mxGeometry x="140" y="100" width="110" height="50" as="geometry" />
        </mxCell>
        <mxCell id="V_dCHnUJ4swRhuql47Kb-20" value="&lt;div&gt;Histogram&lt;/div&gt;&lt;div&gt;Equalization&lt;br&gt;&lt;/div&gt;" style="html=1;whiteSpace=wrap;fillColor=#a20025;fontColor=#ffffff;strokeColor=#6F0000;opacity=50;" vertex="1" parent="V_dCHnUJ4swRhuql47Kb-15">
          <mxGeometry x="20" y="160" width="110" height="50" as="geometry" />
        </mxCell>
        <mxCell id="V_dCHnUJ4swRhuql47Kb-21" value="&lt;div&gt;Sobel Edge&lt;/div&gt;&lt;div&gt;Detection&lt;br&gt;&lt;/div&gt;" style="html=1;whiteSpace=wrap;fillColor=#a20025;fontColor=#ffffff;strokeColor=#6F0000;opacity=50;" vertex="1" parent="V_dCHnUJ4swRhuql47Kb-15">
          <mxGeometry x="140" y="160" width="110" height="50" as="geometry" />
        </mxCell>
        <mxCell id="V_dCHnUJ4swRhuql47Kb-22" value="&lt;div&gt;Sobel Edge&lt;/div&gt;&lt;div&gt;Detection&lt;br&gt;&lt;/div&gt;" style="html=1;whiteSpace=wrap;fillColor=#a20025;fontColor=#ffffff;strokeColor=#6F0000;gradientColor=none;" vertex="1" parent="V_dCHnUJ4swRhuql47Kb-15">
          <mxGeometry x="20" y="100" width="110" height="50" as="geometry" />
        </mxCell>
        <mxCell id="V_dCHnUJ4swRhuql47Kb-23" value="Image Preprocessing" style="text;html=1;align=center;verticalAlign=middle;whiteSpace=wrap;rounded=0;fontSize=14;fontStyle=1" vertex="1" parent="V_dCHnUJ4swRhuql47Kb-15">
          <mxGeometry x="10" width="250" height="30" as="geometry" />
        </mxCell>
        <mxCell id="V_dCHnUJ4swRhuql47Kb-24" value="" style="edgeStyle=orthogonalEdgeStyle;rounded=0;orthogonalLoop=1;jettySize=auto;html=1;entryX=0;entryY=0.5;entryDx=0;entryDy=0;" edge="1" parent="1" source="V_dCHnUJ4swRhuql47Kb-16" target="V_dCHnUJ4swRhuql47Kb-5">
          <mxGeometry relative="1" as="geometry" />
        </mxCell>
        <mxCell id="V_dCHnUJ4swRhuql47Kb-25" value=" (high-level) Workflow for a single image" style="text;html=1;align=center;verticalAlign=middle;whiteSpace=wrap;rounded=0;fontSize=14;fontStyle=1" vertex="1" parent="1">
          <mxGeometry x="-2040" y="2070" width="330" height="30" as="geometry" />
        </mxCell>
      </root>
    </mxGraphModel>
  </diagram>
</mxfile>
